<svg width="70" height="70" viewBox="0 0 70 70" fill="none" xmlns="http://www.w3.org/2000/svg">
<path d="M49.2252 43.75L61.25 49.5833C61.25 49.5833 62.7083 43.75 62.7083 35C62.7083 26.25 61.25 20.4167 61.25 20.4167L49.2252 26.25M49.2252 43.75C49.4486 41.1233 49.5833 38.129 49.5833 35C49.5833 31.871 49.4486 28.8768 49.2252 26.25M49.2252 43.75C48.8011 48.7407 48.0579 52.4049 47.3147 53.1481C46.1805 54.2824 38.2407 55.4167 29.1667 55.4167C20.0926 55.4167 12.1528 54.2824 11.0185 53.1481C9.88426 52.0138 8.75 44.0741 8.75 35C8.75 25.9259 9.88426 17.9861 11.0185 16.8519C12.1528 15.7176 20.0926 14.5833 29.1667 14.5833C38.2407 14.5833 46.1805 15.7176 47.3147 16.8519C48.0579 17.595 48.8011 21.2593 49.2252 26.25" stroke="#FEFDFF" stroke-width="3.75" stroke-linecap="round" stroke-linejoin="round"/>
</svg>
