<svg width="60" height="60" viewBox="0 0 60 60" fill="none" xmlns="http://www.w3.org/2000/svg">
<path d="M36.8238 5H23.1738V15.9H36.8238V5Z" fill="#FEFDFF"/>
<path d="M40.5762 5V15.9H54.6763C53.4013 9.025 48.3262 5.025 40.5762 5Z" fill="#FEFDFF"/>
<path d="M5 19.6484V40.4735C5 49.5735 10.425 54.9985 19.525 54.9985H40.475C49.575 54.9985 55 49.5735 55 40.4735V19.6484H5ZM36.1 40.4485L30.9 43.4485C29.8 44.0735 28.725 44.3985 27.725 44.3985C26.975 44.3985 26.3 44.2235 25.675 43.8735C24.225 43.0485 23.425 41.3485 23.425 39.1485V33.1485C23.425 30.9485 24.225 29.2485 25.675 28.4235C27.125 27.5735 28.975 27.7235 30.9 28.8485L36.1 31.8485C38.025 32.9485 39.075 34.4985 39.075 36.1735C39.075 37.8485 38 39.3235 36.1 40.4485Z" fill="#FEFDFF"/>
<path d="M19.4223 5C11.6723 5.025 6.59728 9.025 5.32228 15.9H19.4223V5Z" fill="#FEFDFF"/>
</svg>
