<svg width="70" height="70" viewBox="0 0 70 70" fill="none" xmlns="http://www.w3.org/2000/svg">
<path d="M64.1667 46.6667C64.1667 54.9162 64.1667 59.0409 61.6038 61.6038C59.0409 64.1667 54.9162 64.1667 46.6667 64.1667H23.3333C15.0838 64.1667 10.959 64.1667 8.39616 61.6038C5.83334 59.0409 5.83334 54.9162 5.83334 46.6667V35C5.83334 26.7504 5.83334 22.6256 8.39616 20.0628C10.959 17.5 15.0838 17.5 23.3333 17.5H46.6667C54.9162 17.5 59.0409 17.5 61.6038 20.0628C64.1667 22.6256 64.1667 26.7504 64.1667 35V46.6667Z" stroke="#FEFDFF" stroke-width="3.75"/>
<path d="M26.25 5.83331L35 16.0416L43.75 5.83331" stroke="#FEFDFF" stroke-width="3.75" stroke-linecap="round"/>
<path d="M18 48L26.8159 39.6039C27.7021 38.7599 29.1318 38.9026 29.8337 39.9053L33.9683 45.8119C34.7337 46.9052 36.3348 46.9565 37.1685 45.9143L43.5 38" stroke="#FEFDFF" stroke-width="3.75" stroke-linecap="round"/>
<path d="M58.3333 46.6667C58.3333 45.0558 57.0275 43.75 55.4167 43.75C53.8058 43.75 52.5 45.0558 52.5 46.6667C52.5 48.2775 53.8058 49.5833 55.4167 49.5833C57.0275 49.5833 58.3333 48.2775 58.3333 46.6667Z" fill="#FEFDFF"/>
<path d="M58.3333 35C58.3333 33.3891 57.0275 32.0833 55.4167 32.0833C53.8058 32.0833 52.5 33.3891 52.5 35C52.5 36.6109 53.8058 37.9167 55.4167 37.9167C57.0275 37.9167 58.3333 36.6109 58.3333 35Z" fill="#FEFDFF"/>
</svg>
